<svg xmlns="http://www.w3.org/2000/svg" xmlns:xlink="http://www.w3.org/1999/xlink" version="1.1" x="0px" y="0px" width="720px" height="720px" viewBox="0 0 720 720" enable-background="new 0 0 720 720" xml:space="preserve">
<g xmlns="http://www.w3.org/2000/svg" id="Shape_8_1_" enable-background="new    ">
	<g id="Shape_8">
		<g>
			<path fill-rule="evenodd" clip-rule="evenodd" fill="#2A94F4" d="M613.959,309.16c-104.121-57.015-24.077-96.592-113.135-136.367     c-89.059-39.774-314.244-64.741-294.473-3.833c19.77,60.908-10.38,73.258-108.005,110.062S129.927,420.061,85.88,468     c-56.363,86.503,68.815,62.097,149.268,41.76c80.452-20.337,132.385-47.953,182.145,12.96     c49.76,60.913,256.645,2.081,225.535-58.455C596.266,373.658,718.08,366.175,613.959,309.16z"/>
		</g>
	</g>
</g>
<g xmlns="http://www.w3.org/2000/svg" id="soda_1_">
	<g id="Shape_10">
		<g>
			<path fill-rule="evenodd" clip-rule="evenodd" fill="#D2373C" d="M365.066,228.477l32.884,303.057     c0,0,43.401,21.599,86.289,21.599c41.888,0,83.289-21.599,83.289-21.599l38.365-307.248L365.066,228.477z"/>
		</g>
	</g>
	<g id="Shape_12">
		<g>
			<path fill-rule="evenodd" clip-rule="evenodd" fill="#AA2131" d="M364.999,229.194l1.2,11.52c0,0,39.758,14.413,121.226,13.68     c81.468-0.733,116.333-13.44,116.333-13.44l1.92-13.44L364.999,229.194z"/>
		</g>
	</g>
	<g id="Ellipse_1">
		<g>
			<ellipse fill-rule="evenodd" clip-rule="evenodd" fill="#F7F7F7" cx="485.099" cy="179.156" rx="130.658" ry="31.319"/>
		</g>
	</g>
	<g id="Shape_9">
		<g>
			<path fill-rule="evenodd" clip-rule="evenodd" fill="#E5E5E5" d="M492.088,243.815c109.758-1.914,131.107-23.721,131.107-23.721     l-7.631-43.524c-18.167,29.189-105.027,31.581-130.568,31.644c-25.541-0.064-112.401-2.455-130.568-31.644l-7.631,43.524     c0,0,21.349,21.807,131.107,23.721v0.137c2.407-0.004,4.762-0.02,7.093-0.041c2.331,0.022,4.686,0.038,7.093,0.041V243.815z"/>
		</g>
	</g>
	<g id="Rectangle_1">
		<g>
			<path fill-rule="evenodd" clip-rule="evenodd" fill="#E5E5E5" d="M552.247,153.191l-132.828,0.209l-3.577,27.361     c0,0,18.118,13.269,69.209,13.541c51.09,0.272,70.387-13.541,70.387-13.541L552.247,153.191z"/>
		</g>
	</g>
	<g id="Ellipse_2">
		<g>
			<ellipse fill-rule="evenodd" clip-rule="evenodd" fill="#F7F7F7" cx="485.802" cy="153.68" rx="66.574" ry="15.153"/>
		</g>
	</g>
	<g id="Ellipse_3">
		<g>
			<ellipse fill-rule="evenodd" clip-rule="evenodd" fill="#E5E5E5" cx="485.31" cy="151.515" rx="12.047" ry="3.561"/>
		</g>
	</g>
	<g id="Shape_11">
		<g>
			<path fill-rule="evenodd" clip-rule="evenodd" fill="#FFE3CA" d="M561.313,46.56l-71.677,23.9l-13.44,80.662     c0,0,2.856,1.864,7.893,2.171c5.037,0.307,6.547,0.033,9.28-0.677c1.511-1.316,12.32-69.459,12.32-69.459l61.225-20.539     L561.313,46.56z"/>
		</g>
	</g>
	<g id="Shape_11_copy">
		<g>
			<path fill-rule="evenodd" clip-rule="evenodd" fill="#FCD2B1" d="M561.313,46.56l-4.153,1.011l4.526,12.059l-59.358,19.419     l-13.515,74.255c0,0,2.891-0.182,4.556-0.688c1.511-1.316,12.32-69.459,12.32-69.459l61.225-20.539L561.313,46.56z"/>
		</g>
	</g>
</g>
<g xmlns="http://www.w3.org/2000/svg" id="Layer_7">
	<g id="Shape_28">
		<g>
			<polygon fill-rule="evenodd" clip-rule="evenodd" fill="#F6D982" points="355.02,205.144 338.95,209.16 343.602,225.226      364.747,218.462    "/>
		</g>
	</g>
	<g id="Shape_26">
		<g>
			<path fill-rule="evenodd" clip-rule="evenodd" fill="#F7D16C" d="M338.95,208.949c0,0-23.569,81.622-30.661,111.19     c-7.092,29.568,13.533,57.92,13.533,57.92l22.203-151.988L338.95,208.949z"/>
		</g>
	</g>
	<g id="Shape_25">
		<g>
			<path fill-rule="evenodd" clip-rule="evenodd" fill="#ffbe55" d="M343.813,225.226c0,0-33.805,158.027-31.295,158.33     c2.509,0.302,43.771-21.984,43.771-21.984l8.458-143.11L343.813,225.226z"/>
		</g>
	</g>
	<g id="Shape_20">
		<g>
			<path fill-rule="evenodd" clip-rule="evenodd" fill="#F6D982" d="M400.06,283.992l-20.722,12.26c0,0,11.985,13.379,14.167,14.797     c2.182,1.419,19.665-13.74,19.665-13.74L400.06,283.992z M308.289,250.381l-8.67,6.976l21.991,2.748l-1.48-5.707L308.289,250.381     z M268.747,232.413l10.361,6.764l15.859-5.707l-18.608-8.878L268.747,232.413z M188.817,252.284l13.322,11.415l14.802-9.301     l-14.802-13.106L188.817,252.284z M165.558,269.617l10.996,17.334l12.899-15.643l-7.612-9.935L165.558,269.617z M138.28,286.74     l19.665,13.106l15.013-10.569l-19.454-10.358L138.28,286.74z M209.963,223.535l8.035,1.903l13.956-7.187l-10.361-0.211     L209.963,223.535z"/>
		</g>
	</g>
	<g id="Shape_19">
		<g>
			<path fill-rule="evenodd" clip-rule="evenodd" fill="#ffbe55" d="M157.734,298.366l9.727,41.855l16.071,3.805l-11.841-55.172     L157.734,298.366z M189.452,271.309l-14.167,10.781l13.322,76.734l20.511,8.456l-7.612-46.294L189.452,271.309z M216.941,254.186     l-14.167,8.878l11.841,108.231l18.185,6.553L223.707,299L216.941,254.186z M215.038,223.958c0,0,12.766,47.148,17.974,64.473     c5.207,17.326,15.013,36.359,15.013,36.359l2.537-48.197c-4.822-40.463-18.819-58.343-18.819-58.343L215.038,223.958z      M271.826,316.003l-10.691-62.451l-5.498,8.033l4.652,58.555l11.487-3.549l-0.068,0.801c0,0,1.797,12.257,9.093,8.456     c7.295-3.802,12.899-44.814,12.899-44.814l1.057-47.562l-16.282,4.651L271.826,316.003z M297.585,324.578l19.877-0.423     l4.018-64.685l-21.78-2.748L297.585,324.578z M325.839,250.804l0.211,38.473l21.145-11.626l-0.846-35.725L325.839,250.804z      M369.399,253.129l-15.013,46.083l-1.692,44.603l39.33-93.222L369.399,253.129z M381.875,297.943l-9.093,29.594l2.326,15.009     l10.996-2.325l8.247-31.92L381.875,297.943z"/>
		</g>
	</g>
	<g id="Shape_26_copy">
		<g>
			<path fill-rule="evenodd" clip-rule="evenodd" fill="#F7D16C" d="M222.227,286.529l-10.573-9.09l0.634,94.49l15.013,3.171     C227.302,375.1,226.441,294.074,222.227,286.529z"/>
		</g>
	</g>
	<g id="Shape_27">
		<g>
			<polygon fill-rule="evenodd" clip-rule="evenodd" fill="#F6D982" points="224.13,274.057 211.654,277.65 222.016,287.163      235.337,279.975    "/>
		</g>
	</g>
	<g id="Shape_25_copy">
		<g>
			<path fill-rule="evenodd" clip-rule="evenodd" fill="#ffbe55" d="M234.914,279.764l-13.11,7.187l5.286,88.572l17.551,0.423     C244.641,375.946,243.511,291.845,234.914,279.764z"/>
		</g>
	</g>
	<g id="Shape_18">
		<g>
			<path fill-rule="evenodd" clip-rule="evenodd" fill="#F7D16C" d="M138.28,286.74l19.877,50.522l11.63,5.285l-12.053-44.18     L138.28,286.74z M165.769,269.829l15.648,75.677l11.841,13.317l-17.128-76.945L165.769,269.829z M189.24,252.495     c0,0,16.209,110.445,17.762,117.743s11.419,0.634,11.419,0.634s-14.443-104.948-15.648-107.808L189.24,252.495z M209.963,223.535     c5.022,10.134,13.533,50.945,13.533,50.945l8.247,3.382c-1.431-11.742-15.648-54.115-15.648-54.115L209.963,223.535z      M266.632,290.756l-0.211,25.789l11.207-0.634l1.903-78.002l-10.573-5.708L266.632,290.756z M256.483,260.528l-11.63,11.626     l2.537,45.66l6.344,41.855l11.841-1.057l-2.537-41.643L256.483,260.528z M281.011,323.944l8.247,47.14l8.247-43.123l4.863-64.896     l-18.608,20.927L281.011,323.944z M346.351,279.764l9.304,5.496l1.692-35.725l-11.63-6.764L346.351,279.764z M391.813,250.593     l-26.22,61.514l12.053,0.634l25.163-64.262L391.813,250.593z M394.139,308.09l-8.458,32.131l17.128-2.748l10.573-40.164     L394.139,308.09z"/>
		</g>
	</g>
	<g id="Shape_23">
		<g>
			<path fill-rule="evenodd" clip-rule="evenodd" fill="#F6D982" d="M221.381,313.375l13.322,10.781l13.956-8.878l-11.841-9.09     L221.381,313.375z M275.936,313.586l-21.145,2.959l10.361,10.147c0,0,16.789,1.952,15.859-4.439     C280.081,315.862,275.936,313.586,275.936,313.586z M297.716,322.042l12.053,11.204l15.436-9.301l-13.322-9.301L297.716,322.042z      M324.994,283.992l6.767,16.7l24.106-14.797l-12.476-13.952L324.994,283.992z M368.765,306.399l-5.286,3.805l2.749,14.374     l18.396-11.204L368.765,306.399z"/>
		</g>
	</g>
	<g id="Shape_22">
		<g>
			<path fill-rule="evenodd" clip-rule="evenodd" fill="#F7D16C" d="M221.381,312.741c0,0,6.038,17.833,10.15,63.839l12.264,3.382     l-8.67-57.709L221.381,312.741z M255.214,316.123c0,0,6.7,20.411,2.96,53.904c-3.74,33.493,15.225,13.317,15.225,13.317     s0.206-46.738-6.555-58.132L255.214,316.123z M297.716,322.042c-7.259,8.313-10.573,39.741-10.573,39.741     c-4.926,37.158,14.167,25.367,14.167,25.367l6.767-55.595L297.716,322.042z M318.518,319.275     c2.927,1.957,5.145,3.602,6.385,4.458c-4.648,25.135-17.459,55.172-17.459,55.172l16.282-0.634l9.515-78.636l-8.247-15.643     C324.994,283.992,322.075,300.035,318.518,319.275z M363.478,310.204c-11.499,31.221-14.167,59.189-14.167,59.189l14.802-7.399     l4.441-40.375L363.478,310.204z"/>
		</g>
	</g>
	<g id="Shape_21">
		<g>
			<path fill-rule="evenodd" clip-rule="evenodd" fill="#ffbe55" d="M234.665,321.934l7.861,55.914l22.414,4.016     c0,0-13.201-63.033-16.282-66.587L234.665,321.934z M266.421,324.578c0,0,9.083,34.772,5.498,57.709l16.493-1.268     c0,0,0.956-46.91-7.401-58.977L266.421,324.578z M307.02,330.709l-6.766,49.253l12.899-1.691l11.785-54.489L307.02,330.709z      M323.936,380.173l17.762-10.569l15.013-83.921l-23.894,13.106L323.936,380.173z M367.707,320.562l-7.189,42.278l15.648-20.716     l9.093-29.172L367.707,320.562z"/>
		</g>
	</g>
	<g id="Shape_17_2_">
		<g>
			<path fill-rule="evenodd" clip-rule="evenodd" fill="#F7F7F7" d="M370.033,340.432c0,0-2.856,11.405-10.573,17.334     c-7.604,5.843-37.017,23.561-80.141,22.252v-0.056c-0.32,0.014-0.633,0.016-0.952,0.028c-0.319-0.012-0.631-0.014-0.952-0.028     v0.056c-43.124,1.309-72.536-16.409-80.141-22.252c-7.716-5.929-10.573-17.334-10.573-17.334l-40.811-6.553l43.137,231.47     L211.232,570c7.342-4.571,59.457-5.57,67.137-5.693c7.68,0.123,59.794,1.123,67.137,5.693l22.203-4.651l43.137-231.47     L370.033,340.432z"/>
		</g>
	</g>
	<g id="Shape_17_copy">
		<g>
			<path fill-rule="evenodd" clip-rule="evenodd" fill="#E5E5E5" d="M370.033,340.432c0,0-2.856,11.405-10.573,17.334     c-7.604,5.843-37.017,23.561-80.141,22.252v-0.056c-0.32,0.014-0.633,0.016-0.952,0.028c-0.319-0.012-0.631-0.014-0.952-0.028     v0.056c-43.124,1.309-72.536-16.409-80.141-22.252c-7.716-5.929-10.573-17.334-10.573-17.334L211.232,570     c7.342-4.571,59.457-5.57,67.137-5.693c7.68,0.123,59.794,1.123,67.137,5.693L370.033,340.432z"/>
		</g>
	</g>
</g>
<g xmlns="http://www.w3.org/2000/svg" id="pizza_1_">
	<g id="Shape_15">
		<g>
			<path fill-rule="evenodd" clip-rule="evenodd" fill="#F9CE8F" d="M232.302,434.627L67.45,503.505     c-7.727,16.244,1.44,23.279,1.44,23.279c15.174,3.06,71.074,40.487,116.38,66.478c45.306,25.99,139.105,57.577,156.933,63.598     c17.828,6.02,23.756-10.56,23.756-10.56C358.511,643.452,232.302,434.627,232.302,434.627z"/>
		</g>
	</g>
	<g id="Shape_14">
		<g>
			<path fill-rule="evenodd" clip-rule="evenodd" fill="#ffbe55" d="M361.64,634.06L250.778,452.386     c-88.498-31.345-140.136,71.758-140.136,71.758c78.32,73.985,219.872,119.09,243.079,125.996     C376.928,657.045,361.64,634.06,361.64,634.06z"/>
		</g>
	</g>
	<g id="Shape_17">
		<g>
			<path fill-rule="evenodd" clip-rule="evenodd" fill="#EDA545" d="M146.582,536.794c-3.32,1.061-3.257,6.47,1.003,6.778     c4.26,0.308,8.982,3.713,10.544,2.093C159.692,544.045,149.902,535.733,146.582,536.794z M205.666,474.706     c-3.741,1.13-7.127,2.869-2.4,6.96c4.727,4.091,6.461,7.403,8.638,5.28C214.082,484.822,209.407,473.576,205.666,474.706z      M217.184,522.224c5.053,1.639,8.239-4.47,6.959-8.16C222.862,510.374,212.131,520.585,217.184,522.224z M264.456,510.944     c-2.149,4.972,7.816,3.462,6.479-0.48C270.071,507.916,266.605,505.972,264.456,510.944z M226.156,569.089     c-2.493,1.746,0.295,13.613,4.169,13.101s7.496-1.684,3.496-6.489C229.822,570.895,228.648,567.343,226.156,569.089z      M292.608,565.403c0.149,5.275,6.944,6.208,9.979,3.775C305.622,566.744,292.459,560.128,292.608,565.403z M314.227,615.281     c-2.316-3.139-9.479,9.782-4.186,9.846C315.333,625.191,316.543,618.42,314.227,615.281z M204.48,541.063     c-2.174,4.92,7.905,3.426,6.552-0.475C210.159,538.067,206.654,536.144,204.48,541.063z"/>
		</g>
	</g>
	<g id="Shape_13">
		<g>
			<path fill-rule="evenodd" clip-rule="evenodd" fill="#EDA545" d="M235.661,416.388c0,0-84.563-5.33-170.131,89.277     c0,0,7.495,13.025,44.632,19.679c0,0,54.734-78.185,139.176-73.438C249.339,451.906,261.486,433.382,235.661,416.388z"/>
		</g>
	</g>
	<g id="Ellipse_4">
		<g>
			<path fill-rule="evenodd" clip-rule="evenodd" fill="#AA2131" d="M177.96,536.809c14.674-0.629,25.536-11.101,25.536-23.13     c0-12.03-10.862-22.502-25.536-23.13c-14.943-0.64-28.204,9.554-28.204,23.13C149.756,527.255,163.017,537.45,177.96,536.809z      M258.72,565.901c15.001-0.591,26.106-10.428,26.106-21.729c0-11.301-11.105-21.138-26.106-21.729     c-15.276-0.601-28.834,8.975-28.834,21.729C229.886,556.926,243.444,566.503,258.72,565.901z M272.575,581     C257.966,580.431,245,589.493,245,601.56c0,2.972,0.547,5.762,1.95,8.27c18.517,8.412,27.673,11.805,28.123,12.073     c12.939-1.554,22.467-10.343,22.467-20.344C297.541,590.867,286.921,581.559,272.575,581z M186.129,554.714     c-9.134-0.421-17.646,3.477-22.937,9.893c5.855,4.077,24.784,15.307,45.88,26.268c1.811-3.368,2.821-7.131,2.821-11.045     C211.893,566.768,200.933,555.397,186.129,554.714z M266.684,498.073c1.736-2.417,3.162-5.005,3.487-7.865     c-10.121-17.658-15.815-25.766-16.023-26.247c-11.414-6.295-24.285-4.713-30.126,3.42c-6.246,8.696-3.06,22.47,8.262,31.305     C243.813,507.683,259.635,507.887,266.684,498.073z M330.578,583.912c-3.189,2.096-5.858,4.92-7.711,8.357     c-6.184,11.468-1.922,26.661,10.784,34.297c7.839,4.712,17.176,5.335,24.869,2.216     C355.297,622.42,343.956,603.563,330.578,583.912z"/>
		</g>
	</g>
	<g id="Ellipse_4_copy">
		<g>
			<path fill-rule="evenodd" clip-rule="evenodd" fill="#D2373C" d="M180.365,534.304c14.677-0.628,25.541-11.095,25.541-23.119     s-10.864-22.491-25.541-23.119c-14.946-0.64-28.21,9.55-28.21,23.119C152.155,524.754,165.419,534.944,180.365,534.304z      M261.141,563.382c15.004-0.59,26.111-10.423,26.111-21.718c0-11.295-11.107-21.128-26.111-21.718     c-15.279-0.601-28.84,8.971-28.84,21.718C232.302,554.411,245.862,563.983,261.141,563.382z M275.479,582.071     c-14.612-0.569-27.58,8.489-27.58,20.55c0,2.971,0.547,5.759,1.951,8.266c18.521,8.408,27.679,11.799,28.129,12.068     c12.941-1.553,22.472-10.338,22.472-20.334C300.45,591.933,289.828,582.63,275.479,582.071z M188.776,556.278     c-9.136-0.421-17.65,3.475-22.941,9.888c5.856,4.075,24.788,15.3,45.889,26.256c1.812-3.367,2.821-7.127,2.821-11.04     C214.545,568.326,203.583,556.96,188.776,556.278z M269.106,495.586c1.736-2.416,3.162-5.003,3.488-7.862     c-10.123-17.65-15.818-25.753-16.026-26.234c-11.416-6.292-24.289-4.711-30.132,3.419c-6.247,8.692-3.061,22.459,8.264,31.29     C246.232,505.191,262.056,505.396,269.106,495.586z M329.414,581.144c-3.189,2.095-6.1,4.918-7.953,8.353     c-6.185,11.463-1.922,26.648,10.786,34.28c7.841,4.709,17.179,5.333,24.874,2.215     C353.898,619.633,342.793,600.785,329.414,581.144z"/>
		</g>
	</g>
	<g id="Shape_16">
		<g>
			<path fill-rule="evenodd" clip-rule="evenodd" fill="#E03D4B" d="M246.219,470.866c2.527-0.829,3.911-5.195,0-6.48     c0,0-5.611,0.531-5.039,3.36C241.752,470.575,243.692,471.695,246.219,470.866z M234.941,478.546     c-2.415,3.898,0.881,4.376,2.88,5.04c1.998,0.664,4.863,0.994,4.799-3.36C242.556,475.872,234.941,478.546,234.941,478.546z      M258.636,482.494c4.978,3.011,5.82,1.14,4.987-1.433c-0.833-2.573-1.861-5.155-4.512-4.06     C259.111,477.001,253.658,479.482,258.636,482.494z M250.059,479.745c3.628,1.063,2.919-3.623,1.92-5.04     c-0.999-1.417-1.92-0.72-1.92-0.72S246.431,478.682,250.059,479.745z M249.906,492.657c0,0,0.632-5.712-2.227-5.709     c-2.859,0.002-4.34,1.715-4.053,4.406C243.913,494.045,247.863,496.305,249.906,492.657z M259.306,494.023     c3.53-1.266,0.235-4.602-1.391-5.153s-1.959,0.544-1.959,0.544S255.776,495.289,259.306,494.023z M250.839,535.944     c1.344-2.294-0.511-6.482-4.29-4.856c0,0-3.851,4.112-1.55,5.853C247.3,538.683,249.495,538.238,250.839,535.944z      M247.476,549.164c0.772,4.519,3.557,2.696,5.494,1.87c1.936-0.826,4.3-2.474,1.37-5.695     C251.41,542.12,247.476,549.164,247.476,549.164z M267.838,536.438c5.722-1.039,5.114-2.999,2.787-4.375     c-2.328-1.377-4.807-2.631-6.068-0.055C264.557,532.007,262.115,537.477,267.838,536.438z M257.695,535.009     c-1.686-0.4-1.914,0.731-1.914,0.731s0.393,5.921,3.813,4.316C263.015,538.452,259.381,535.41,257.695,535.009z M262.58,547.028     c-2.14,1.894-2.115,4.158-0.118,5.985c1.997,1.827,6.451,0.906,5.566-3.181C268.028,549.832,264.72,545.134,262.58,547.028z      M270.412,543.398c0,0,3.756,4.521,5.561,1.236c1.806-3.285-2.871-3.604-4.454-2.941     C269.937,542.356,270.412,543.398,270.412,543.398z M160.984,509.445c0,0-0.65,5.597,2.235,5.635s4.383-1.623,4.099-4.268     C167.034,508.167,163.054,505.893,160.984,509.445z M179.441,523.624c1.065-1.813,1.984-4.544-2.285-5.4     c-4.269-0.856-3.241,7.152-3.241,7.152C177.222,528.558,178.376,525.438,179.441,523.624z M184.629,501.607     c3.98-4.231,2.327-5.449-0.362-5.177c-2.689,0.272-5.427,0.732-4.908,3.554C179.359,499.984,180.649,505.838,184.629,501.607z      M173.677,502.212c1.795-3.322-2.934-3.617-4.526-2.94c-1.593,0.677-1.104,1.725-1.104,1.725S171.883,505.534,173.677,502.212z      M190.028,510.835c0,0-5.485-1.81-6.082,0.966c-0.597,2.776,0.778,4.573,3.484,4.858     C190.138,516.944,193.188,513.583,190.028,510.835z M178.041,510.104c-0.502-3.717-4.45-1.2-5.327,0.272     c-0.877,1.473,0.124,2.03,0.124,2.03S178.544,513.821,178.041,510.104z M180.567,563.07c0,0-4.899,2.781-3.225,5.133     s3.9,2.582,5.866,0.79C185.175,567.201,184.656,562.644,180.567,563.07z M203.232,571.192c-1.808-2.011-3.798-3.951-5.769-1.865     c0,0-3.96,4.499,1.806,5.215C205.036,575.258,205.041,573.203,203.232,571.192z M190.024,570.147     c-1.488-0.886-2.044,0.127-2.044,0.127s-1.393,5.777,2.348,5.265C194.069,575.027,191.513,571.033,190.024,570.147z      M201.211,580.665c-1.707,0.161-1.565,1.299-1.565,1.299s2.232,5.444,4.934,2.843     C207.282,582.205,202.918,580.503,201.211,580.665z M281.812,609.919c-1.938,1.826-1.344,6.382,2.742,5.888     c0,0,4.858-2.865,3.143-5.193C285.982,608.286,283.75,608.093,281.812,609.919z M284.037,594.794     c-2.091,0.246-4.825,1.163-2.926,5.091c1.9,3.929,7.666-1.735,7.666-1.735C289.316,593.583,286.129,594.548,284.037,594.794z      M265.644,604.627c-5.783-0.622-5.754,1.436-3.911,3.42c1.843,1.984,3.867,3.894,5.805,1.773     C267.538,609.82,271.428,605.249,265.644,604.627z M274.577,603.481c-3.736,0.575-1.111,4.532,0.394,5.395     c1.504,0.863,2.044-0.161,2.044-0.161S278.313,602.906,274.577,603.481z M273.684,595.927c2.589-1.216,3.205-3.402,1.807-5.726     c-1.398-2.323-5.932-2.699-6.24,1.484C269.251,591.685,271.096,597.143,273.684,595.927z M263.599,598.528     c1.706-0.19,1.545-1.327,1.545-1.327s-2.324-5.415-4.985-2.765C257.497,597.085,261.894,598.718,263.599,598.528z      M328.082,595.74c-3.797,2.594-0.976,4.364,0.582,5.78s4.046,2.876,5.76-1.137C336.139,596.37,328.082,595.74,328.082,595.74z      M346.875,614.105c-2.617-1.154-4.67-0.183-5.504,2.397c-0.833,2.581,1.86,6.247,5.216,3.732     C346.588,620.234,349.492,615.259,346.875,614.105z M333.793,609.072c-0.469,3.727,4.001,2.309,5.229,1.11     c1.228-1.199,0.402-1.996,0.402-1.996S334.262,605.345,333.793,609.072z M193.187,501.74c0,0-4.48,0.77-3.832,3.061     c0.648,2.292,2.284,3.097,4.262,2.265S196.419,502.563,193.187,501.74z"/>
		</g>
	</g>
</g>
<g xmlns="http://www.w3.org/2000/svg" id="Layer_8">
	<g id="Shape_9_copy">
		<g>
			<path fill-rule="evenodd" clip-rule="evenodd" fill="#F1A05A" d="M464.239,594.685c-14.576-1.073-74.365-5.005-145.511-3.178     c2.135,12.211-13.042,62.112,147.223,55.904c157.306,5.534,142.318-43.823,144.44-55.953     C538.073,589.602,477.494,593.696,464.239,594.685z"/>
		</g>
	</g>
	<g id="Rectangle_1_2_">
		<g>
			<polygon fill-rule="evenodd" clip-rule="evenodd" fill="#E94939" points="320.846,517.115 320.846,567.495 608.099,567.495      608.099,522.238    "/>
		</g>
	</g>
	<g id="Rectangle_1_copy">
		<g>
			<path fill-rule="evenodd" clip-rule="evenodd" fill="#E96A4A" d="M366.615,544.269h6.319v-22.201h-6.319V544.269z      M377.374,522.068v22.201h2.049v-22.201H377.374z M360.296,544.269h2.049v-22.201h-2.049V544.269z"/>
		</g>
	</g>
	<g id="Shape_10_copy_2">
		<g>
			<path fill-rule="evenodd" clip-rule="evenodd" fill="#8DAF57" d="M600.243,511.65c-21.876-18.298-276.714,1.692-284.179,7.685     c0,0-12.125,14.968-2.32,12.863c9.806-2.105,12.083-6.017,20.702-3.128c8.62,2.89,16.203,4.721,22.838,1.152     c6.635-3.569,10.139-7.04,17.416-3.292c7.277,3.747,13.365,5.709,23.167,1.482c9.802-4.227,11.325-9.183,20.702-1.482     c9.377,7.702,11.723,15.289,27.275,8.724c15.551-6.565,21.784-15.325,33.847-8.23c12.062,7.095,15.572,13.624,32.861,9.383     c17.289-4.241,21.899-3.364,31.054,0.823c9.155,4.187,16.176-1.664,26.782-2.14c10.605-0.476,5.435,3.836,14.459,3.292     c9.024-0.544,16.903-9.564,24.81-5.597C617.563,537.153,622.118,529.948,600.243,511.65z"/>
		</g>
	</g>
	<g id="Shape_10_copy_3">
		<g>
			<path fill-rule="evenodd" clip-rule="evenodd" fill="#8DCF68" d="M598.18,509.458c-21.874-18.301-266.405-5.83-273.87,0.165     c0,0-20.319,21.368-10.514,19.262c9.805-2.105,12.082-6.018,20.7-3.128c8.619,2.89,16.202,4.722,22.836,1.152     c6.634-3.569,10.138-7.041,17.415-3.293c7.276,3.748,13.364,5.709,23.165,1.482c9.801-4.228,11.324-9.185,20.7-1.482     c9.376,7.703,11.722,15.292,27.272,8.726s21.782-15.328,33.844-8.232c12.061,7.096,15.57,13.626,32.858,9.384     c17.288-4.242,21.897-3.365,31.051,0.823c9.154,4.188,16.175-1.664,26.779-2.14c10.604-0.476,5.434,3.837,14.457,3.293     c9.023-0.544,16.901-9.565,24.808-5.597C617.586,533.84,620.053,527.759,598.18,509.458z"/>
		</g>
	</g>
	<g id="Shape_10_2_">
		<g>
			<path fill-rule="evenodd" clip-rule="evenodd" fill="#8DAF57" d="M608.782,595.674c-22.738-18.982-287.52-0.069-295.28,6.148     c0,0-13.321,16.551-3.129,14.367c10.192-2.184,12.559-6.242,21.519-3.244c8.96,2.997,16.842,4.897,23.739,1.195     c6.897-3.702,10.539-7.302,18.103-3.415c7.564,3.887,13.892,5.922,24.081,1.537c10.188-4.385,11.772-9.526,21.519-1.537     s12.186,15.86,28.35,9.05c16.164-6.81,22.644-15.897,35.182-8.538s16.186,14.132,34.157,9.733     c17.971-4.4,22.762-3.49,32.278,0.854c9.516,4.344,16.814-1.726,27.838-2.22c11.024-0.494,5.649,3.979,15.029,3.415     c9.38-0.564,17.569-9.921,25.788-5.806S631.52,614.656,608.782,595.674z"/>
		</g>
	</g>
	<g id="Shape_10_copy">
		<g>
			<path fill-rule="evenodd" clip-rule="evenodd" fill="#8DCF68" d="M606.027,592.6c-22.736-18.985-276.912-6.047-284.671,0.171     c0,0-21.121,22.165-10.929,19.981c10.191-2.184,12.558-6.243,21.517-3.245c8.959,2.998,16.841,4.898,23.737,1.195     c6.896-3.703,10.538-7.304,18.101-3.416c7.563,3.888,13.891,5.923,24.078,1.537c10.187-4.386,11.771-9.528,21.517-1.537     s12.185,15.863,28.347,9.051s22.641-15.9,35.178-8.539c12.537,7.361,16.184,14.135,34.154,9.734     c17.969-4.4,22.76-3.49,32.275,0.854c9.515,4.344,16.813-1.727,27.835-2.22c11.023-0.494,5.649,3.98,15.028,3.416     s17.568-9.923,25.786-5.807C626.199,617.893,628.763,611.585,606.027,592.6z"/>
		</g>
	</g>
	<g id="Rounded_Rectangle_1">
		<g>
			<path fill-rule="evenodd" clip-rule="evenodd" fill="#6E492E" d="M604.574,558.615H324.517c-9.762,0-17.676,7.914-17.676,17.676     v0.171c0,9.762,7.914,17.676,17.676,17.676h280.057c9.762,0,17.676-7.914,17.676-17.676v-0.171     C622.25,566.528,614.336,558.615,604.574,558.615z"/>
		</g>
	</g>
	<g id="Rounded_Rectangle_1_copy">
		<g>
			<path fill-rule="evenodd" clip-rule="evenodd" fill="#906241" d="M603.744,558.615H328.958c-4.952,0-8.966,4.014-8.966,8.966     v0.171c0,4.952,4.014,8.966,8.966,8.966h274.786c4.952,0,8.966-4.014,8.966-8.966v-0.171     C612.71,562.629,608.696,558.615,603.744,558.615z"/>
		</g>
	</g>
	<g id="Shape_9_2_">
		<g>
			<path fill-rule="evenodd" clip-rule="evenodd" fill="#F1A05A" d="M463.182,433.847c-152.32-3.124-144.299,81.53-144.299,81.53     c6.42,12.196,145.506,10.237,145.506,10.237l0-0.008c19.697,0.198,136.808,0.899,142.688-10.264     C607.076,515.342,615.08,430.884,463.182,433.847z"/>
		</g>
	</g>
	<g id="Shape_9_copy_2">
		<g>
			<path fill-rule="evenodd" clip-rule="evenodd" fill="#F18F53" d="M463.141,514.113c-152.277-3.152-144.259,1.265-144.259,1.265     c6.42,12.196,145.506,10.237,145.506,10.237l-0.001-0.009c19.695,0.198,136.809,0.899,142.688-10.264     C607.076,515.342,615.082,510.976,463.141,514.113z"/>
		</g>
	</g>
	<g id="Rounded_Rectangle_1_copy_2">
		<g>
			<path fill-rule="evenodd" clip-rule="evenodd" fill="#ffbe55" d="M610.404,544.269h-288.79c-3.914,0-7.087,3.173-7.087,7.087     v0.171c0,2.982,1.844,5.529,4.452,6.576l-0.183-0.001c0.101,0.015,0.202,0.03,0.303,0.045c0.783,0.298,1.628,0.468,2.515,0.468     h0.664c70.585,10.515,141.167,28.832,143.817,29.523v0.022c0,0,0.02-0.005,0.043-0.011c0.022,0.006,0.043,0.011,0.043,0.011     v-0.022c2.646-0.691,73.068-19.008,143.646-29.523h0.578c0.865,0,1.691-0.163,2.458-0.447c0.148-0.022,0.297-0.044,0.446-0.066     l-0.269,0.001c2.609-1.046,4.453-3.594,4.453-6.576v-0.171C617.492,547.442,614.318,544.269,610.404,544.269z"/>
		</g>
	</g>
	<g id="Rounded_Rectangle_2">
		<g>
			<path fill-rule="evenodd" clip-rule="evenodd" fill="#EDA545" d="M611.21,544.269H320.433c-1.282,0-4.976,1.99-5.565,5.465     h302.319C617.187,549.734,616.648,545.149,611.21,544.269z"/>
		</g>
	</g>
	<g id="Shape_12_2_">
		<g>
			<path fill-rule="evenodd" clip-rule="evenodd" fill="#FFE3CA" d="M452.076,452.957c2.266,2.393,8.286-5.941,6.785-7.852     C457.361,443.194,449.811,450.564,452.076,452.957z M474.546,453.947c-2.429,0.05-1.143,10.527,2.133,10.156     C479.955,463.732,476.975,453.897,474.546,453.947z M495.709,447.001c-2.232-0.973-5.45,9.092-2.312,10.129     C496.534,458.166,497.941,447.974,495.709,447.001z M517.422,451.933c-2.258-0.912-5.2,9.237-2.036,10.188     S519.68,452.845,517.422,451.933z M431.457,451.841c-2.441,0.245-0.318,10.665,2.949,10.03     C437.674,461.235,433.898,451.596,431.457,451.841z M414.577,446.61c-2.074-1.338-6.907,8.159-3.939,9.708     C413.606,457.869,416.651,447.948,414.577,446.61z M386.414,454.585c-2.405-0.621-4.051,9.952-0.724,10.493     S388.819,455.206,386.414,454.585z M452.19,474.803c2.698,2.026,7.346-7.252,5.503-8.919     C455.85,464.216,449.492,472.777,452.19,474.803z M539.143,463.584c-1.746,2.893,7.991,6.487,9.466,4.48     C550.084,466.057,540.889,460.691,539.143,463.584z M498.168,466.297c-1.535,1.891,7.291,7.685,9.129,4.938     C509.135,468.488,499.703,464.406,498.168,466.297z M412.389,471.454c0.816,2.29,10.338-2.212,8.95-5.205     C419.952,463.256,411.574,469.164,412.389,471.454z"/>
		</g>
	</g>
</g>
</svg>